<?xml version="1.0" standalone="no"?>
<!DOCTYPE svg PUBLIC "-//W3C//DTD SVG 20010904//EN"
 "http://www.w3.org/TR/2001/REC-SVG-20010904/DTD/svg10.dtd">
<svg version="1.0" xmlns="http://www.w3.org/2000/svg"
 width="543.000000pt" height="434.000000pt" viewBox="0 0 543.000000 434.000000"
 preserveAspectRatio="xMidYMid meet">
<metadata>
Created by potrace 1.16, written by Peter Selinger 2001-2019
</metadata>
<g transform="translate(0.000000,434.000000) scale(0.100000,-0.100000)"
fill="#000000" stroke="none">
<path d="M0 2170 l0 -2170 2715 0 2715 0 0 2170 0 2170 -2715 0 -2715 0 0
-2170z m3135 1826 c407 -64 773 -250 1057 -538 251 -253 413 -539 497 -878 43
-171 56 -276 56 -465 0 -189 -13 -294 -56 -465 -84 -340 -254 -637 -503 -883
-298 -295 -665 -478 -1081 -538 -116 -17 -404 -17 -520 0 -416 60 -783 243
-1081 538 -294 290 -485 670 -545 1088 -17 116 -17 404 0 520 47 326 173 629
367 886 136 180 348 373 529 481 224 134 493 228 730 257 50 6 104 13 120 15
57 8 341 -4 430 -18z"/>
<path d="M2760 3794 c-414 -22 -795 -192 -1093 -487 -273 -270 -437 -606 -483
-988 -62 -515 112 -1013 484 -1385 367 -367 893 -542 1409 -469 721 102 1297
664 1420 1385 20 117 22 402 4 515 -86 541 -401 983 -882 1239 -249 133 -575
205 -859 190z m318 -70 c353 -56 650 -203 895 -443 157 -152 255 -292 349
-496 239 -517 179 -1137 -157 -1607 -237 -333 -595 -566 -995 -648 -797 -164
-1605 300 -1860 1069 -107 321 -115 644 -25 961 142 497 493 881 980 1073 247
97 559 132 813 91z"/>
<path d="M3665 3204 c-233 -31 -320 -73 -374 -182 -26 -51 -42 -50 -54 4 -9
44 -44 85 -103 120 -74 44 -188 67 -221 46 -6 -4 -43 -102 -82 -217 -39 -116
-71 -203 -72 -195 -1 8 0 39 1 68 2 51 0 55 -39 91 -35 32 -41 44 -41 79 0 78
-94 140 -229 149 -58 4 -79 2 -87 -8 -10 -13 -101 -233 -160 -384 -45 -117
-54 -111 -30 23 15 81 11 89 -47 102 -17 4 -31 11 -30 17 1 5 5 32 8 59 l7 49
-40 23 c-48 27 -156 30 -223 7 -49 -18 -106 -67 -121 -105 -23 -59 -72 -460
-88 -720 -6 -96 -13 -330 -17 -520 -5 -303 -4 -352 10 -401 20 -67 71 -118
155 -156 30 -13 74 -37 98 -54 24 -16 63 -37 86 -45 53 -18 173 -28 213 -16
29 8 30 11 47 110 9 56 19 111 23 123 7 20 8 20 25 -8 25 -41 76 -81 139 -109
30 -14 70 -36 88 -50 64 -49 112 -64 205 -64 115 0 136 10 143 69 32 252 143
758 234 1076 9 29 9 30 10 4 1 -15 -4 -51 -9 -80 -56 -291 -115 -685 -126
-844 -6 -93 -5 -102 15 -127 26 -33 80 -50 120 -38 34 9 41 5 41 -25 0 -36 34
-58 79 -52 53 7 139 47 183 85 l36 32 6 117 c15 261 54 545 88 648 13 39 15
41 103 70 50 17 100 36 112 43 31 17 81 127 85 187 l3 50 -48 3 -49 3 8 42 c5
23 9 62 9 87 l0 45 -67 3 c-53 2 -68 6 -68 18 0 9 14 58 32 111 21 63 39 98
52 105 12 6 59 20 106 30 47 10 101 30 121 43 66 43 129 166 129 252 0 32 -1
33 -45 33 l-45 0 6 84 c5 62 4 85 -6 91 -23 14 -193 14 -305 -1z m251 -68 c10
-25 -25 -128 -62 -184 -44 -67 -77 -86 -190 -112 -50 -12 -99 -26 -107 -33
-32 -25 -100 -254 -113 -380 l-7 -66 109 5 c60 3 117 7 128 9 47 10 -13 -183
-68 -218 -12 -8 -55 -24 -96 -36 -80 -24 -107 -42 -121 -79 -34 -88 -89 -502
-89 -669 l0 -93 -50 -39 c-49 -39 -143 -81 -180 -81 -39 0 -52 28 -45 94 26
248 78 575 154 971 22 116 57 295 76 400 20 104 43 205 51 223 8 19 14 45 14
58 0 33 29 105 54 132 58 65 230 106 464 111 55 1 74 -2 78 -13z m-809 -27
c24 -12 51 -32 60 -46 15 -23 15 -29 -7 -86 -193 -520 -365 -1175 -440 -1677
-7 -47 -19 -92 -27 -100 -10 -11 -36 -15 -106 -15 -79 1 -99 4 -142 27 -61 32
-113 82 -122 116 -7 31 4 749 13 839 6 53 4 64 -10 69 -9 4 -19 5 -21 3 -2 -2
-24 -78 -48 -169 -64 -234 -142 -592 -172 -789 -8 -51 -17 -96 -20 -100 -4 -3
-41 -6 -83 -5 -90 1 -163 22 -222 65 -74 54 -74 49 -66 529 6 406 11 524 36
760 17 170 49 376 61 403 25 55 188 107 233 74 18 -13 18 -16 -2 -133 -34
-196 -51 -387 -78 -862 -4 -80 -2 -122 7 -143 20 -49 42 -33 62 46 116 458
202 722 344 1061 l56 134 36 0 c47 0 135 -42 156 -74 16 -23 15 -36 -4 -193
-12 -92 -23 -185 -26 -206 -14 -98 -36 -410 -42 -587 -5 -173 -4 -197 10 -209
9 -7 22 -11 30 -8 7 2 33 90 60 198 85 342 178 670 264 934 61 188 54 179 115
172 28 -4 70 -16 95 -28z"/>
</g>
</svg>
